<svg width="100" height="25" viewBox="0 0 100 25" fill="none" xmlns="http://www.w3.org/2000/svg">
<g clip-path="url(#clip0_1_44)">
<path d="M24.4586 9.42624C24.4538 9.39657 24.4483 9.3662 24.4408 9.33653C23.7432 6.66473 22.1883 4.30035 20.0183 2.61165C17.8482 0.922947 15.1847 0.00472649 12.4428 0C9.1264 0.0188027 5.95312 1.36364 3.62046 3.73892C1.2878 6.1142 -0.0133114 9.32551 0.00308275 12.667C0.0405844 15.7788 1.22718 18.7649 3.33146 21.0429C5.43574 23.321 8.3068 24.7275 11.3846 24.9883L11.4407 24.9931L11.5257 25C11.5257 25 11.5257 25 11.5312 25H11.6072C12.162 25 12.694 24.778 13.0863 24.3827C13.4786 23.9874 13.699 23.4514 13.699 22.8924C13.699 22.6157 13.6448 22.3416 13.5397 22.086C13.4346 21.8303 13.2805 21.598 13.0863 21.4023C12.892 21.2067 12.6614 21.0515 12.4076 20.9457C12.1539 20.8398 11.8819 20.7854 11.6072 20.7855H11.5387C11.5374 20.7836 11.5358 20.7821 11.5339 20.7809C11.532 20.7797 11.5299 20.7789 11.5277 20.7786C10.3719 20.6509 9.25579 20.2788 8.25244 19.6867C7.2491 19.0946 6.3811 18.2958 5.70519 17.3425C5.02928 16.3892 4.56069 15.3029 4.33006 14.1546C4.09942 13.0063 4.11192 11.8219 4.36676 10.6788C4.68403 9.18028 5.41356 7.80201 6.47185 6.70167C7.53014 5.60132 8.87445 4.82335 10.351 4.45674C12.4708 3.90863 14.7199 4.22942 16.6054 5.34884C18.4909 6.46825 19.8593 8.29503 20.4106 10.429C20.4112 10.4312 20.4123 10.4332 20.4137 10.435C20.4151 10.4368 20.4169 10.4382 20.4188 10.4393C20.4914 10.9401 20.7404 11.3979 21.1203 11.729C21.5002 12.0601 21.9857 12.2424 22.488 12.2426C23.0428 12.2426 23.5748 12.0205 23.9671 11.6253C24.3594 11.23 24.5798 10.694 24.5798 10.135C24.5801 9.89347 24.5391 9.65371 24.4586 9.42624Z" fill="#2EC39B"/>
<path d="M14.7925 10.4876C14.7925 9.25351 13.7995 8.25305 12.5747 8.25305C11.3498 8.25305 10.3568 9.25351 10.3568 10.4876V15.0582C10.3568 16.2924 11.3498 17.2928 12.5747 17.2928C13.7995 17.2928 14.7925 16.2924 14.7925 15.0582V10.4876Z" fill="#2EC39B"/>
<path d="M19.8253 15.3578C19.2371 15.3578 18.673 15.5932 18.2571 16.0123C17.8412 16.4313 17.6075 16.9997 17.6075 17.5923V22.163C17.6075 22.7556 17.8412 23.324 18.2571 23.743C18.673 24.1621 19.2371 24.3975 19.8253 24.3975C20.4135 24.3975 20.9776 24.1621 21.3936 23.743C21.8095 23.324 22.0431 22.7556 22.0431 22.163V17.5923C22.0431 16.9997 21.8095 16.4313 21.3936 16.0123C20.9776 15.5932 20.4135 15.3578 19.8253 15.3578Z" fill="#408EFF"/>
<path d="M40.811 9.95418H40.7425C40.4402 9.95917 40.1405 9.89745 39.8645 9.77334C39.5884 9.64924 39.3427 9.46575 39.1445 9.23577C38.7439 8.77214 38.2443 8.40585 37.6833 8.16432C37.1222 7.92278 36.5142 7.81227 35.9048 7.84105C33.1479 7.84105 31.1507 9.81339 31.1507 12.8927C31.1507 15.972 33.1479 17.9643 35.9048 17.9643C36.9133 18.0282 37.9104 17.7196 38.7094 17.0963C39.5084 16.473 40.0547 15.5777 40.2459 14.5779C40.2591 14.518 40.2588 14.4559 40.245 14.3961C40.2312 14.3363 40.2042 14.2805 40.1661 14.2326C40.1279 14.1848 40.0796 14.1462 40.0246 14.1197C39.9697 14.0932 39.9095 14.0795 39.8486 14.0797H36.0815C35.8272 14.0797 35.5833 13.9779 35.4034 13.7967C35.2236 13.6155 35.1226 13.3698 35.1226 13.1135C35.1226 12.884 35.2131 12.6639 35.3742 12.5016C35.5352 12.3393 35.7537 12.2481 35.9815 12.2481H40.9945C41.2284 12.2481 41.4599 12.2945 41.676 12.3847C41.8921 12.4749 42.0884 12.607 42.2537 12.7736C42.4191 12.9403 42.5503 13.1381 42.6398 13.3558C42.7293 13.5734 42.7753 13.8068 42.7753 14.0424C42.557 15.7161 41.7369 17.251 40.4706 18.3563C39.2042 19.4616 37.5794 20.0605 35.9041 20.0395C34.9669 20.0615 34.035 19.8917 33.1648 19.5404C32.2946 19.1892 31.5042 18.6637 30.8413 17.9958C30.1784 17.3279 29.6569 16.5315 29.3083 15.6547C28.9597 14.7779 28.7912 13.839 28.813 12.8947C28.7929 11.9509 28.9626 11.0128 29.3119 10.1368C29.6611 9.26083 30.1827 8.46512 30.8452 7.79759C31.5077 7.13007 32.2975 6.60454 33.1669 6.25264C34.0363 5.90075 34.9674 5.72978 35.9041 5.75001C36.9982 5.71179 38.0851 5.94103 39.0721 6.41814C40.0591 6.89524 40.9168 7.60603 41.5719 8.48976C41.6684 8.62967 41.725 8.79355 41.7356 8.96359C41.7461 9.13364 41.7103 9.30335 41.6318 9.45429C41.5534 9.60523 41.4354 9.73163 41.2907 9.81976C41.146 9.90789 40.9801 9.95438 40.811 9.95418Z" fill="#383838"/>
<path d="M49.7452 20.0968C46.589 20.0968 44.252 17.8429 44.252 14.3612C44.252 10.8796 46.489 8.64573 49.7452 8.64573C50.4616 8.61368 51.1767 8.73323 51.8444 8.99667C52.5121 9.2601 53.1176 9.66158 53.6219 10.1752C54.1263 10.6889 54.5182 11.3033 54.7724 11.9789C55.0266 12.6545 55.1375 13.3762 55.0979 14.0976C55.0969 14.3963 54.9786 14.6824 54.7689 14.8935C54.5592 15.1047 54.2752 15.2237 53.9788 15.2246H46.6089C46.6232 15.625 46.7157 16.0188 46.8811 16.3832C47.0465 16.7476 47.2815 17.0757 47.5728 17.3486C47.864 17.6215 48.2058 17.8339 48.5786 17.9736C48.9513 18.1134 49.3477 18.1777 49.7452 18.1631C50.1589 18.1869 50.5725 18.115 50.9544 17.9531C51.3362 17.7911 51.6763 17.5433 51.9486 17.2287C52.1078 17.0365 52.3068 16.8819 52.5316 16.7755C52.7564 16.6692 53.0016 16.6137 53.25 16.6131C53.4256 16.6131 53.5978 16.6625 53.7471 16.7557C53.8964 16.849 54.017 16.9823 54.0952 17.1407C54.1735 17.2991 54.2064 17.4764 54.1902 17.6526C54.1739 17.8288 54.1093 17.997 54.0034 18.1382C53.4957 18.7782 52.8458 19.2889 52.1061 19.6291C51.3664 19.9694 50.5577 20.1295 49.7452 20.0968ZM46.6294 13.3751H52.7212C52.7113 12.9846 52.6227 12.6003 52.4607 12.2455C52.2988 11.8907 52.0669 11.5727 51.7791 11.311C51.4914 11.0493 51.1539 10.8494 50.787 10.7232C50.4202 10.5971 50.0317 10.5475 49.6452 10.5774C48.884 10.5703 48.1486 10.8554 47.5884 11.3748C47.0282 11.8941 46.6851 12.6088 46.6288 13.3737L46.6294 13.3751Z" fill="#383838"/>
<path d="M57.6945 10.6981H56.3931V8.82653H57.6945V7.27516C57.6945 6.95541 57.8206 6.64875 58.045 6.42265C58.2694 6.19656 58.5737 6.06953 58.8911 6.06953C59.1828 6.06953 59.4626 6.1863 59.6689 6.39415C59.8752 6.602 59.9911 6.88391 59.9911 7.17785V8.82653H62.6678V10.6981H59.9911V16.836C59.9911 17.6641 60.3109 18.003 61.2692 18.003H62.6671V19.9159H60.8698C58.9123 19.9159 57.6938 19.0878 57.6938 16.8367L57.6945 10.6981Z" fill="#383838"/>
<path d="M70.8774 8.64573C73.7938 8.64573 76.0507 10.8996 76.0507 14.3212C76.0507 17.7428 73.774 20.0968 70.8774 20.0968C70.1431 20.1222 69.4132 19.973 68.7468 19.6613C68.0804 19.3496 67.4963 18.8841 67.0418 18.3025V18.8035C67.0418 18.9491 67.0133 19.0933 66.958 19.2279C66.9027 19.3624 66.8216 19.4847 66.7194 19.5877C66.6172 19.6907 66.4958 19.7724 66.3623 19.8281C66.2288 19.8838 66.0856 19.9125 65.9411 19.9125C65.7865 19.9125 65.6335 19.8818 65.4908 19.8223C65.348 19.7627 65.2183 19.6753 65.109 19.5652C64.9997 19.4552 64.9131 19.3245 64.8539 19.1806C64.7948 19.0368 64.7644 18.8826 64.7644 18.7269V6.12959C64.7644 5.98458 64.7927 5.841 64.8478 5.70703C64.9029 5.57307 64.9836 5.45135 65.0854 5.34881C65.1871 5.24628 65.3079 5.16495 65.4409 5.10946C65.5738 5.05397 65.7164 5.02541 65.8603 5.02541C66.1729 5.02541 66.4727 5.15054 66.6938 5.37327C66.9148 5.596 67.039 5.8981 67.039 6.21309V10.4787C67.4914 9.89137 68.0745 9.41947 68.7413 9.10107C69.4081 8.78267 70.1398 8.62669 70.8774 8.64573ZM70.3781 10.6381C68.6801 10.6381 67.0424 11.9866 67.0424 14.3647C67.0424 16.7594 68.6808 18.1079 70.3781 18.1079C72.0959 18.1079 73.7342 16.7194 73.7342 14.3247C73.7342 11.93 72.0959 10.6381 70.3781 10.6381Z" fill="#383838"/>
<path d="M82.7418 8.64573C83.4725 8.6241 84.1982 8.77511 84.8606 9.08668C85.5231 9.39824 86.104 9.86172 86.5568 10.44V10.0542C86.5568 9.72864 86.6852 9.41637 86.9137 9.18613C87.1422 8.95589 87.4522 8.82654 87.7753 8.82654C88.0614 8.82654 88.3358 8.94105 88.5381 9.14489C88.7404 9.34873 88.8541 9.62519 88.8541 9.91346V18.798C88.8541 19.0943 88.7373 19.3785 88.5293 19.588C88.3213 19.7975 88.0393 19.9153 87.7452 19.9153C87.5891 19.9153 87.4346 19.8843 87.2904 19.8241C87.1463 19.7639 87.0152 19.6757 86.9049 19.5646C86.7945 19.4534 86.707 19.3214 86.6473 19.1761C86.5876 19.0308 86.5568 18.8752 86.5568 18.7179V18.2645C86.101 18.852 85.5149 19.3238 84.8455 19.6418C84.176 19.9599 83.4419 20.1155 82.702 20.0961C79.8459 20.0961 77.5486 17.7414 77.5486 14.3205C77.5486 10.8996 79.8459 8.64573 82.7418 8.64573ZM83.2212 10.6381C81.5233 10.6381 79.8856 11.9258 79.8856 14.3212C79.8856 16.7166 81.524 18.1044 83.2212 18.1044C84.939 18.1044 86.5568 16.7559 86.5568 14.3612C86.5568 11.9866 84.939 10.6381 83.2212 10.6381Z" fill="#383838"/>
<path d="M93.0253 5.02333C93.3174 5.02333 93.5976 5.14025 93.8041 5.34835C94.0107 5.55646 94.1267 5.83872 94.1267 6.13303V13.6787L97.75 9.27925C97.8662 9.13821 98.0118 9.0247 98.1764 8.94681C98.3411 8.86892 98.5208 8.82856 98.7027 8.82861C98.9222 8.82862 99.1368 8.89302 99.3205 9.01395C99.5042 9.13488 99.6489 9.3071 99.7371 9.50956C99.8252 9.71203 99.8529 9.93597 99.8167 10.154C99.7806 10.3721 99.6822 10.5748 99.5336 10.7375L96.2034 14.3833L99.7336 18.2341C99.8648 18.3775 99.9517 18.5562 99.9838 18.7485C100.016 18.9408 99.9916 19.1383 99.914 19.3169C99.8364 19.4956 99.7088 19.6476 99.5468 19.7543C99.3849 19.861 99.1956 19.9179 99.002 19.918C98.7506 19.918 98.5022 19.8632 98.2737 19.7576C98.0452 19.652 97.8421 19.4979 97.6781 19.3059L94.126 15.148V18.798C94.1261 18.945 94.0974 19.0907 94.0416 19.2265C93.9859 19.3624 93.904 19.4859 93.8009 19.5899C93.6977 19.6939 93.5752 19.7765 93.4404 19.8327C93.3055 19.889 93.161 19.918 93.0151 19.918C92.8621 19.918 92.7107 19.8877 92.5695 19.8287C92.4282 19.7698 92.2998 19.6833 92.1917 19.5744C92.0836 19.4655 91.9978 19.3361 91.9393 19.1938C91.8808 19.0515 91.8507 18.8989 91.8507 18.7448V6.20825C91.8507 5.89423 91.9744 5.59305 92.1946 5.37087C92.4149 5.1487 92.7137 5.0237 93.0253 5.02333Z" fill="#383838"/>
</g>
<defs>
<clipPath id="clip0_1_44">
<rect width="100" height="25" fill="white"/>
</clipPath>
</defs>
</svg>
